<?xml version="1.0" standalone="no"?>
<!DOCTYPE svg PUBLIC "-//W3C//DTD SVG 20010904//EN"
 "http://www.w3.org/TR/2001/REC-SVG-20010904/DTD/svg10.dtd">
<svg version="1.0" xmlns="http://www.w3.org/2000/svg"
 width="200.000000pt" height="200.000000pt" viewBox="0 0 200.000000 200.000000"
 preserveAspectRatio="xMidYMid meet">
<metadata>
Created by potrace 1.11, written by Peter Selinger 2001-2013
</metadata>
<g transform="translate(0.000000,200.000000) scale(0.100000,-0.100000)"
fill="#000000" stroke="none">
<path d="M871 1976 c-79 -39 -86 -57 -86 -215 0 -155 7 -177 73 -210 29 -15
67 -20 177 -24 164 -6 178 -9 268 -44 164 -64 249 -217 256 -459 5 -163 -29
-274 -114 -378 -25 -32 -40 -58 -34 -61 18 -12 55 -79 73 -135 31 -93 31 -316
0 -412 -13 -42 111 -3 216 67 119 79 205 196 257 348 34 102 37 146 37 492 0
282 -3 338 -29 515 -22 145 -149 331 -292 426 -132 87 -253 111 -578 112 -167
1 -184 -1 -224 -22z"/>
<path d="M420 1967 c-101 -40 -143 -69 -225 -151 -114 -114 -165 -224 -183
-391 -4 -38 -7 -227 -6 -420 1 -330 2 -355 24 -440 69 -272 279 -484 530 -534
100 -20 133 -23 311 -27 189 -4 220 1 276 43 44 33 53 69 53 197 -1 200 -26
224 -247 231 -156 5 -186 9 -260 37 -54 20 -132 73 -165 112 -24 28 -77 135
-83 166 -3 14 -8 36 -11 50 -13 54 -12 250 2 314 17 81 60 169 108 218 l35 36
-20 26 c-35 44 -68 129 -80 206 -10 66 -7 206 5 265 22 100 25 98 -64 62z"/>
<path d="M828 1252 c-37 -4 -74 -42 -87 -88 -14 -50 -14 -247 -1 -296 15 -51
53 -94 98 -109 22 -7 94 -12 180 -12 160 0 180 7 215 74 26 51 23 297 -4 351
-19 37 -56 69 -88 76 -21 4 -279 8 -313 4z"/>
</g>
</svg>
